# xmcd
#
# Track frame offsets:
#	150
#	11036
#	23256
#	34394
#	43470
#	53739
#	64295
#	72874
#	85739
#	98372
#	106712
#	119828
#
# Disc length: 1780 seconds
#
# Revision: 0
# Processed by: cddbd v1.5.2PL0 Copyright (c) Steve Scherf et al.
# Submitted via: EasyCDDAExtractor 16.0.6.1
#
DISCID=9906f20c
DTITLE=Συλλογικός δίσκος - Ανθολογία-Γ. Σπανός Β
DYEAR=2010
DGENRE=Έντεχνη λαϊκή
TTITLE0=Μαβίλη Αλέκα - Ο παλιός μας έρωτας [ποίηση Ναπολέων Λαπαθιώτης]
TTITLE1=Χωματά Καίτη - Τίποτ' άλλο [ποίηση Ναπολέων Λαπαθιώτης]
TTITLE2=Βιολάρης Μιχάλης - Η αναχώρησή της [ποίηση Γεώργιος Ζαλοκώστας]
TTITLE3=Αρλέτα - Ο Γιάννης και η Μαριώ [ποίηση Βασίλης Ρώτας]
TTITLE4=Πουλόπουλος Γιάννης - Μόνο [ποίηση Κώστας Καρυωτάκης]
TTITLE5=Αστεριάδη Πόπη - Στου τηλεφώνου το κοχύλι [ποίηση Γεώργιος Αθάνας]
TTITLE6=Χωματά Καίτη - Ένα πουλί [ποίηση Τέλλος Άγρας]
TTITLE7=Πουλόπουλος Γιάννης - Το τραγούδι της ταβέρνας [ποίηση Αργύρης Εφταλιώ
TTITLE7=της]
TTITLE8=Αστεριάδη Πόπη - Ω, χαμηλώστε αυτό το φως [ποίηση Μαρία Πολυδούρη]
TTITLE9=Μαβίλη Αλέκα - Πάθος [ποίηση Μυρτιώτισσα]
TTITLE10=Βιολάρης Μιχάλης - Το όνειρο [ποίηση Γεώργιος Βιζυηνός]
TTITLE11=Αρλέτα - Άφτιαχτο κι αστόλιστο [ποίηση Κωστής Παλαμάς]
EXTD=
EXTT0=
EXTT1=
EXTT2=
EXTT3=
EXTT4=
EXTT5=
EXTT6=
EXTT7=
EXTT8=
EXTT9=
EXTT10=
EXTT11=
PLAYORDER=
